<svg width="341" height="68" viewBox="0 0 341 68" fill="none" xmlns="http://www.w3.org/2000/svg">
<path d="M320.242 67.0319C318.418 67.0319 316.498 66.8639 314.482 66.5279C312.466 66.1919 310.57 65.6879 308.794 65.0159C307.018 64.3919 305.458 63.5759 304.114 62.5679L306.922 52.1279C308.602 53.7119 310.618 54.8879 312.97 55.6559C315.37 56.4239 317.626 56.8079 319.738 56.8079C322.234 56.8079 324.298 56.3039 325.93 55.2959C327.61 54.3359 328.882 52.8479 329.746 50.8319C330.658 48.8159 331.162 46.3199 331.258 43.3439L331.618 37.0799H330.034C329.65 40.1999 328.906 42.7679 327.802 44.7839C326.746 46.7519 325.378 48.2159 323.698 49.1759C322.066 50.0879 320.122 50.5439 317.866 50.5439C315.082 50.5439 312.754 49.8479 310.882 48.4559C309.058 47.0639 307.666 44.9759 306.706 42.1919C305.794 39.3599 305.338 35.8559 305.338 31.6799V15.9839H317.002V28.7999C317.002 33.1679 317.434 36.3119 318.298 38.2319C319.21 40.1039 320.626 41.0399 322.546 41.0399C323.506 41.0399 324.394 40.7519 325.21 40.1759C326.026 39.5999 326.698 38.7839 327.226 37.7279C327.802 36.6719 328.234 35.3999 328.522 33.9119C328.858 32.3759 329.026 30.6719 329.026 28.7999V15.9839H340.618V43.7759C340.618 46.7519 340.33 49.4879 339.754 51.9839C339.226 54.4319 338.41 56.5919 337.306 58.4639C336.25 60.3359 334.906 61.8959 333.274 63.1439C331.642 64.4399 329.746 65.3999 327.586 66.0239C325.426 66.6959 322.978 67.0319 320.242 67.0319Z" fill="black"/>
<path d="M277.59 54.0001V36.0001V15.9841H287.094L287.31 29.1601H288.678C289.014 25.7041 289.638 22.9681 290.55 20.9521C291.462 18.8881 292.758 17.4001 294.438 16.4881C296.166 15.5761 298.254 15.1201 300.702 15.1201C301.182 15.1201 301.686 15.1441 302.214 15.1921C302.742 15.2401 303.342 15.3601 304.014 15.5521L303.51 27.9361C302.694 27.5521 301.83 27.2881 300.918 27.1441C300.054 27.0001 299.262 26.9281 298.542 26.9281C296.718 26.9281 295.134 27.3121 293.79 28.0801C292.494 28.8001 291.462 29.9041 290.694 31.3921C289.926 32.8801 289.446 34.7521 289.254 37.0081V54.0001H277.59Z" fill="black"/>
<path d="M247.861 55.0081C245.797 55.0081 243.925 54.6001 242.245 53.7841C240.613 52.9681 239.317 51.7681 238.357 50.1841C237.445 48.6001 236.989 46.6321 236.989 44.2801C236.989 42.0721 237.421 40.2721 238.285 38.8801C239.149 37.4401 240.373 36.3121 241.957 35.4961C243.541 34.6321 245.437 33.9361 247.645 33.4081C249.901 32.8321 252.373 32.3521 255.061 31.9681C256.645 31.6801 257.917 31.4161 258.877 31.1761C259.837 30.9361 260.557 30.6001 261.037 30.1681C261.517 29.6881 261.757 29.0161 261.757 28.1521C261.757 26.9041 261.301 25.8721 260.389 25.0561C259.525 24.1921 258.157 23.7601 256.285 23.7601C254.989 23.7601 253.789 24.0001 252.685 24.4801C251.581 24.9121 250.645 25.6081 249.877 26.5681C249.157 27.4801 248.629 28.6081 248.293 29.9521L238.069 27.2161C238.597 25.0561 239.413 23.2081 240.517 21.6721C241.669 20.1361 243.037 18.8641 244.621 17.8561C246.253 16.8481 248.077 16.1281 250.093 15.6961C252.109 15.2161 254.269 14.9761 256.573 14.9761C260.413 14.9761 263.533 15.6001 265.933 16.8481C268.381 18.0961 270.181 20.0161 271.333 22.6081C272.533 25.2001 273.133 28.4881 273.133 32.4721V38.4481C273.133 40.1281 273.157 41.8561 273.205 43.6321C273.301 45.3601 273.397 47.0881 273.493 48.8161C273.589 50.5441 273.733 52.2721 273.925 54.0001H263.701C263.509 52.8001 263.341 51.4321 263.197 49.8961C263.053 48.3121 262.933 46.6801 262.837 45.0001H261.541C260.917 46.8721 259.981 48.5761 258.733 50.1121C257.485 51.6481 255.925 52.8481 254.053 53.7121C252.229 54.5761 250.165 55.0081 247.861 55.0081ZM253.117 46.7281C253.933 46.7281 254.797 46.5841 255.709 46.2961C256.621 45.9601 257.485 45.5041 258.301 44.9281C259.117 44.3521 259.837 43.6561 260.461 42.8401C261.133 41.9761 261.637 40.9921 261.973 39.8881L261.829 34.7041L263.413 34.9921C262.597 35.5681 261.637 36.0241 260.533 36.3601C259.477 36.6961 258.373 36.9601 257.221 37.1521C256.117 37.3441 255.013 37.5601 253.909 37.8001C252.853 37.9921 251.893 38.2561 251.029 38.5921C250.165 38.9281 249.469 39.4081 248.941 40.0321C248.461 40.6081 248.221 41.4001 248.221 42.4081C248.221 43.7041 248.677 44.7601 249.589 45.5761C250.501 46.3441 251.677 46.7281 253.117 46.7281Z" fill="black"/>
<path d="M210.349 55.0079C205.885 55.0079 202.525 53.4959 200.269 50.4719C198.061 47.4479 196.957 42.8399 196.957 36.6479V15.9839H208.621V35.2799C208.621 38.7359 209.125 41.3039 210.133 42.9839C211.141 44.6159 212.677 45.4319 214.741 45.4319C215.989 45.4319 217.069 45.1199 217.981 44.4959C218.941 43.8719 219.733 42.9839 220.357 41.8319C221.029 40.6319 221.509 39.2639 221.797 37.7279C222.133 36.1439 222.301 34.4159 222.301 32.5439V15.9839H233.965V38.3759V53.9999H224.605L224.461 41.9039H223.093C222.469 44.9759 221.605 47.4959 220.501 49.4639C219.445 51.3839 218.077 52.7999 216.397 53.7119C214.765 54.5759 212.749 55.0079 210.349 55.0079Z" fill="black"/>
<path d="M169.28 54.0001V36.0001V15.9841H178.784L179 29.1601H180.368C180.704 25.7041 181.328 22.9681 182.24 20.9521C183.152 18.8881 184.448 17.4001 186.128 16.4881C187.856 15.5761 189.944 15.1201 192.392 15.1201C192.872 15.1201 193.376 15.1441 193.904 15.1921C194.432 15.2401 195.032 15.3601 195.704 15.5521L195.2 27.9361C194.384 27.5521 193.52 27.2881 192.608 27.1441C191.744 27.0001 190.952 26.9281 190.232 26.9281C188.408 26.9281 186.824 27.3121 185.48 28.0801C184.184 28.8001 183.152 29.9041 182.384 31.3921C181.616 32.8801 181.136 34.7521 180.944 37.0081V54.0001H169.28Z" fill="black"/>
<path d="M150.8 55.008C148.4 55.008 146.312 54.552 144.536 53.64C142.76 52.728 141.32 51.36 140.216 49.536C139.112 47.664 138.344 45.384 137.912 42.696H136.616L136.472 54H126.896V36V2.37598H138.488V14.76C138.488 15.912 138.416 17.16 138.272 18.504C138.128 19.8 137.912 21.168 137.624 22.608C137.384 24 137.096 25.464 136.76 27H138.344C138.968 24.36 139.832 22.176 140.936 20.448C142.04 18.672 143.432 17.352 145.112 16.488C146.792 15.576 148.736 15.12 150.944 15.12C154.064 15.12 156.776 15.936 159.08 17.568C161.384 19.152 163.16 21.432 164.408 24.408C165.704 27.384 166.352 30.96 166.352 35.136C166.352 39.264 165.704 42.816 164.408 45.792C163.16 48.768 161.36 51.048 159.007 52.632C156.704 54.216 153.968 55.008 150.8 55.008ZM146.48 45.648C148.064 45.648 149.432 45.216 150.584 44.352C151.784 43.44 152.696 42.192 153.32 40.608C153.944 38.976 154.256 37.104 154.256 34.992C154.256 32.832 153.944 30.984 153.32 29.448C152.744 27.864 151.88 26.64 150.728 25.776C149.624 24.864 148.304 24.408 146.768 24.408C145.76 24.408 144.824 24.6 143.96 24.984C143.096 25.32 142.328 25.824 141.656 26.496C140.984 27.12 140.408 27.864 139.928 28.728C139.448 29.544 139.088 30.432 138.848 31.392C138.608 32.352 138.488 33.312 138.488 34.272V35.64C138.488 36.792 138.632 37.944 138.92 39.096C139.256 40.248 139.736 41.328 140.36 42.336C141.032 43.344 141.872 44.16 142.88 44.784C143.888 45.36 145.088 45.648 146.48 45.648Z" fill="black"/>
<path d="M102.66 67.1038C98.3876 67.1038 94.9076 66.7678 92.2196 66.0958C89.5796 65.4718 87.6356 64.5118 86.3876 63.2158C85.1396 61.9678 84.5156 60.4318 84.5156 58.6078C84.5156 56.4478 85.3796 54.6718 87.1076 53.2798C88.8836 51.8878 91.4516 51.0958 94.8116 50.9038V49.5358C92.2196 49.5358 90.2036 49.2478 88.7636 48.6718C87.3716 48.0958 86.6756 47.0878 86.6756 45.6478C86.6756 44.3038 87.3476 43.0798 88.6916 41.9758C90.0836 40.8718 92.3876 40.0558 95.6036 39.5278V38.1598C92.6756 37.8238 90.3476 36.8158 88.6196 35.1358C86.9396 33.4078 86.0996 31.1518 86.0996 28.3678C86.0996 25.9678 86.7716 23.8078 88.1156 21.8878C89.4596 19.9678 91.4516 18.4318 94.0916 17.2798C96.7796 16.1278 100.116 15.5518 104.1 15.5518H123.684V24.2638L111.516 22.6798V24.2638C114.78 24.6958 117.084 25.4398 118.428 26.4958C119.772 27.5518 120.444 28.9918 120.444 30.8158C120.444 32.6878 119.796 34.3678 118.5 35.8558C117.204 37.3438 115.356 38.4958 112.956 39.3118C110.604 40.1278 107.772 40.5358 104.46 40.5358C103.788 40.5358 103.068 40.5118 102.3 40.4638C101.58 40.4158 100.356 40.2958 98.6276 40.1038C97.8596 40.7278 97.2596 41.2798 96.8276 41.7598C96.3956 42.1918 96.1796 42.5998 96.1796 42.9838C96.1796 43.2238 96.2996 43.4398 96.5396 43.6318C96.7796 43.8238 97.1156 43.9678 97.5476 44.0638C97.9796 44.1598 98.4596 44.2078 98.9876 44.2078H110.58C111.54 44.2078 112.788 44.2798 114.324 44.4238C115.908 44.5198 117.468 44.8798 119.004 45.5038C120.588 46.1278 121.908 47.1358 122.964 48.5278C124.02 49.9198 124.548 51.8878 124.548 54.4318C124.548 57.3118 123.756 59.6878 122.172 61.5598C120.636 63.4318 118.236 64.8238 114.972 65.7358C111.756 66.6478 107.652 67.1038 102.66 67.1038ZM103.956 57.7438C106.788 57.7438 108.972 57.5998 110.508 57.3118C112.044 57.0238 113.1 56.5918 113.676 56.0158C114.252 55.4398 114.54 54.6958 114.54 53.7838C114.54 52.9678 114.372 52.3198 114.036 51.8398C113.7 51.3598 113.268 51.0238 112.74 50.8318C112.212 50.6398 111.66 50.5198 111.084 50.4718C110.556 50.4238 110.1 50.3998 109.716 50.3998H100.356C98.6276 50.4478 97.3556 50.8798 96.5396 51.6958C95.7236 52.4638 95.3156 53.3758 95.3156 54.4318C95.3156 55.3438 95.6036 56.0398 96.1796 56.5198C96.8036 56.9998 97.7396 57.3118 98.9876 57.4558C100.236 57.6478 101.892 57.7438 103.956 57.7438ZM103.668 34.7038C105.636 34.7038 107.124 34.1758 108.132 33.1198C109.14 32.0158 109.644 30.6238 109.644 28.9438C109.644 27.1678 109.116 25.7038 108.06 24.5518C107.052 23.3518 105.612 22.7518 103.74 22.7518C101.772 22.7518 100.26 23.3518 99.2036 24.5518C98.1476 25.7038 97.6196 27.1678 97.6196 28.9438C97.6196 30.0478 97.8356 31.0558 98.2676 31.9678C98.7476 32.8318 99.4436 33.5038 100.356 33.9838C101.268 34.4638 102.372 34.7038 103.668 34.7038Z" fill="black"/>
<path d="M70.8146 54V15.984H82.4066V54H70.8146ZM76.6466 10.944C74.4386 10.944 72.7346 10.488 71.5346 9.576C70.3826 8.664 69.8066 7.32 69.8066 5.544C69.8066 3.72 70.3826 2.352 71.5346 1.44C72.7346 0.48 74.4386 0 76.6466 0C78.9026 0 80.6066 0.48 81.7586 1.44C82.9586 2.352 83.5586 3.72 83.5586 5.544C83.5586 7.272 82.9586 8.616 81.7586 9.576C80.6066 10.488 78.9026 10.944 76.6466 10.944Z" fill="black"/>
<path d="M48.1851 54.0002V30.5282H42.4971V22.1042L53.0091 22.5362V21.2402C51.0411 20.9042 49.4571 20.3042 48.2571 19.4402C47.0571 18.5282 46.1931 17.4722 45.6651 16.2722C45.1371 15.0242 44.8731 13.7282 44.8731 12.3842C44.8731 10.2722 45.4251 8.44816 46.5291 6.91216C47.6331 5.37615 49.1931 4.20016 51.2091 3.38416C53.2731 2.56816 55.6491 2.16016 58.3371 2.16016C60.6411 2.16016 62.7291 2.44816 64.6011 3.02416C66.5211 3.55216 68.0571 4.24816 69.2091 5.11216L68.5611 15.5522C67.3611 14.7362 66.0171 14.0882 64.5291 13.6082C63.0411 13.0802 61.6731 12.8162 60.4251 12.8162C59.0331 12.8162 57.8811 13.1522 56.9691 13.8242C56.0571 14.4962 55.6011 15.6002 55.6011 17.1362C55.6011 18.3362 55.8651 19.2482 56.3931 19.8722C56.9211 20.4962 57.5931 20.9282 58.4091 21.1682C59.2251 21.4082 60.0651 21.5282 60.9291 21.5282H69.2091V30.5282H59.5611V54.0002H48.1851Z" fill="black"/>
<path d="M18.889 54L31.417 6.47998H41.425L28.825 54H18.889ZM0.457031 42.552V34.2H41.857V42.552H0.457031ZM1.60903 54L14.209 6.47998H24.145L11.617 54H1.60903ZM2.11303 24.408V16.2H43.513V24.408H2.11303Z" fill="black"/>
</svg>
