<svg width="779" height="113" viewBox="0 0 779 113" fill="none" xmlns="http://www.w3.org/2000/svg">
  <path d="M99 1.99976C72.5 -6.5 45.5 33.0001 30 37.9997C-12.8 37.9997 -3.5 118.5 30 109L119 73.4997C134 67.5 129.98 11.9365 99 1.99976Z" id="motionpath"/>

<g>
<mask id="path-1-outside-1_202_938" maskUnits="userSpaceOnUse" x="0" y="0" width="779" height="113" fill="black">
<rect fill="white" width="779" height="113"/>
<path fill-rule="evenodd" clip-rule="evenodd" d="M87.3327 32.5249H75.6034H71.978H50.9719C50.9719 30.3212 51.2562 28.6862 51.8249 27.6199C52.4647 26.5536 53.531 25.8428 55.0238 25.4873C56.5877 25.1319 58.7914 24.9897 61.6349 25.0608H112.924V8H50.9719C44.5741 8 39.4914 8.71087 35.7238 10.1326C32.0273 11.5543 29.3615 13.6869 27.7265 16.5304C26.1626 19.3739 25.3807 22.9282 25.3807 27.1934V32.5249H8V48.5194H25.3807V81.5747H50.9719V48.5194H71.978H75.6034H87.3327V81.5747H112.924V32.5249H109.085H87.3327ZM274.079 81.1482C279.197 82.4277 284.955 83.0675 291.353 83.0675C299.03 83.0675 305.855 82.0012 311.826 79.8686C317.868 77.6649 322.595 74.5016 326.008 70.3785C329.42 66.2555 331.126 61.2794 331.126 55.4503C331.126 49.3369 329.42 44.2186 326.008 40.0956C322.595 35.9726 317.868 32.8803 311.826 30.8188C305.855 28.7573 299.03 27.7266 291.353 27.7266C284.955 27.7266 279.197 28.4019 274.079 29.7525C268.961 31.0321 264.589 32.9159 260.963 35.4039C257.338 37.8209 254.566 40.7354 252.646 44.1476C252.379 44.623 252.13 45.1053 251.9 45.5946V8H226.309V81.5747H250.407C250.762 79.9397 251.082 77.3095 251.367 73.6841C251.618 71.0717 251.78 68.2464 251.854 65.208C252.097 65.7309 252.361 66.2459 252.646 66.7531C254.566 70.0942 257.338 73.0087 260.963 75.4968C264.589 77.9137 268.961 79.7975 274.079 81.1482ZM251.9 55.4503C251.9 52.3936 253.25 50.0478 255.952 48.4128C258.724 46.7778 262.35 45.6404 266.828 45.0006C271.378 44.3608 276.354 44.0409 281.756 44.0409C289.007 44.0409 294.623 45.0006 298.604 46.9199C302.585 48.7682 304.575 51.6117 304.575 55.4503C304.575 57.9384 303.686 60.0354 301.909 61.7415C300.132 63.4476 297.537 64.7271 294.125 65.5802C290.713 66.4332 286.59 66.8597 281.756 66.8597C276.354 66.8597 271.378 66.5399 266.828 65.9001C262.35 65.1892 258.724 64.0163 255.952 62.3813C253.25 60.7463 251.9 58.436 251.9 55.4503ZM538.433 83.0675C530.756 83.0675 523.932 82.0012 517.96 79.8686C511.989 77.6649 507.262 74.5016 503.779 70.3785C500.366 66.2555 498.66 61.2794 498.66 55.4503C498.66 49.3369 500.366 44.2186 503.779 40.0956C507.262 35.9726 511.989 32.8803 517.96 30.8188C523.932 28.7573 530.756 27.7265 538.433 27.7265C546.964 27.7265 554.321 28.8995 560.506 31.2453C566.761 33.5201 571.56 36.7545 574.901 40.9487C576.11 42.4103 577.106 43.9612 577.886 45.6015V29.326H603.478V81.5747H579.379L578.953 79.1222C578.739 77.4872 578.491 75.1413 578.206 72.0846C578.064 70.039 577.969 67.7546 577.921 65.2315C577.681 65.7463 577.421 66.2535 577.14 66.7531C575.221 70.0942 572.448 73.0087 568.823 75.4968C565.197 77.9137 560.826 79.7975 555.707 81.1482C550.589 82.4277 544.831 83.0675 538.433 83.0675ZM573.728 62.3813C576.5 60.7463 577.886 58.436 577.886 55.4503C577.886 52.3936 576.5 50.0478 573.728 48.4128C571.027 46.7778 567.401 45.6404 562.852 45.0006C558.373 44.3608 553.433 44.0409 548.03 44.0409C540.779 44.0409 535.163 45.0006 531.182 46.9199C527.202 48.7682 525.211 51.6117 525.211 55.4503C525.211 57.9384 526.1 60.0354 527.877 61.7415C529.654 63.4476 532.249 64.7271 535.661 65.5802C539.073 66.4332 543.196 66.8597 548.03 66.8597C553.433 66.8597 558.373 66.5399 562.852 65.9001C567.401 65.1892 571.027 64.0163 573.728 62.3813ZM636.583 29.326H610.992V81.5747H636.583V56.0332C637.859 55.1636 639.53 54.294 641.595 53.4244C644.296 52.2159 647.566 51.1852 651.405 50.3321C655.244 49.4791 659.473 49.0526 664.094 49.0526V27.7266C660.54 27.7266 657.27 28.3308 654.284 29.5393C651.369 30.6767 648.775 32.205 646.5 34.1244C644.225 35.9726 642.306 37.9986 640.742 40.2023C639.178 42.3349 637.934 44.4319 637.01 46.4934C636.858 46.8203 636.716 47.1404 636.583 47.4539V29.326ZM691.868 29.3259H664.678L700.71 81.2547L684.724 102.901H710.849L762.777 29.3259H735.587L713.092 63.4874L691.868 29.3259ZM466.666 81.5747H492.258V29.326H466.666V55.6756C465.281 56.9787 463.503 58.3254 461.335 59.7155C458.634 61.4927 455.47 63.0211 451.845 64.3006C448.29 65.5091 444.416 66.1133 440.222 66.1133C435.744 66.1133 432.083 65.7223 429.239 64.9404C426.396 64.0874 424.299 62.5945 422.948 60.4619C421.668 58.3293 421.029 55.3082 421.029 51.3984V29.326H395.437V54.0641C395.437 59.68 396.362 64.3717 398.21 68.1393C400.058 71.8358 402.617 74.7859 405.887 76.9896C409.157 79.1933 412.889 80.7572 417.083 81.6813C421.277 82.6765 425.72 83.1741 430.412 83.1741C435.104 83.1741 439.369 82.6054 443.208 81.468C447.046 80.3307 450.459 78.8734 453.444 77.0962C456.43 75.248 458.953 73.2575 461.015 71.1249C463.076 68.9923 464.676 66.9308 465.813 64.9404C466.132 64.4149 466.417 63.9068 466.666 63.4161V81.5747ZM337.486 29.326H363.078V47.4539C363.21 47.1404 363.352 46.8203 363.504 46.4934C364.428 44.4319 365.672 42.3349 367.236 40.2023C368.8 37.9986 370.719 35.9726 372.994 34.1244C375.269 32.205 377.864 30.6767 380.778 29.5393C383.764 28.3308 387.034 27.7266 390.588 27.7266V49.0526C385.967 49.0526 381.738 49.4791 377.899 50.3321C374.06 51.1852 370.79 52.2159 368.089 53.4244C366.024 54.294 364.353 55.1636 363.078 56.0332V81.5747H337.486V29.326ZM152.014 75.1769C154.36 74.5371 158.518 74.2172 164.489 74.2172C174.797 74.2172 183.15 73.4353 189.548 71.8713C196.016 70.2364 200.744 67.8905 203.729 64.8338C206.786 61.706 208.314 57.9384 208.314 53.531C208.314 50.4743 207.426 47.8441 205.649 45.6404C203.871 43.4367 201.526 41.5529 198.611 39.989C198.257 39.7944 197.901 39.6042 197.541 39.4184C199.53 39.8306 201.593 40.1985 203.729 40.5221C208.492 41.1619 213.184 41.3752 217.804 41.1619V27.7265H177.072H170.781H164.489C154.182 27.7265 145.758 28.7218 139.218 30.7122C132.749 32.7026 127.986 35.475 124.93 39.0293C121.873 42.5126 120.345 46.6356 120.345 51.3984C120.345 56.5166 121.909 60.7818 125.036 64.194C128.164 67.5351 132.998 70.0586 139.538 71.7647C141.821 72.3353 144.319 72.8064 147.035 73.1779C142.936 73.3404 139.37 73.6513 136.339 74.1106C131.647 74.8214 128.164 76.0655 125.889 77.8426C123.615 79.5487 122.477 81.9301 122.477 84.9868C122.477 86.4086 122.726 87.8303 123.224 89.252C123.792 90.7449 124.859 92.0955 126.423 93.304C128.058 94.5124 130.403 95.4721 133.46 96.183C136.588 96.8939 140.675 97.2493 145.723 97.2493H175.472C179.524 97.2493 182.474 97.427 184.323 97.7824C186.242 98.209 187.202 99.4885 187.202 101.621V104.5H212.793V98.4222C212.793 94.157 211.94 90.7804 210.234 88.2924C208.599 85.8754 205.755 84.1338 201.703 83.0675C197.651 82.0723 192.107 81.5747 185.069 81.5747H153.613C152.049 81.5747 150.805 81.3614 149.881 80.9349C148.957 80.4373 148.495 79.6909 148.495 78.6957C148.495 76.9185 149.668 75.7456 152.014 75.1769ZM164.489 60.2487C169.181 60.2487 172.949 59.8933 175.792 59.1824C178.707 58.4004 180.804 57.3697 182.083 56.0901C183.363 54.8106 184.003 53.3888 184.003 51.8249C184.003 50.0477 183.363 48.5194 182.083 47.2398C180.804 45.9603 178.742 44.9651 175.899 44.2542C173.055 43.5433 169.252 43.1879 164.489 43.1879C159.798 43.1879 155.995 43.5433 153.08 44.2542C150.166 44.9651 148.033 45.9603 146.682 47.2398C145.332 48.5194 144.656 50.0477 144.656 51.8249C144.656 53.3888 145.296 54.8106 146.576 56.0901C147.926 57.3697 150.059 58.4004 152.973 59.1824C155.888 59.8933 159.727 60.2487 164.489 60.2487Z"/>
</mask>
<path fill-rule="evenodd" clip-rule="evenodd" d="M87.3327 32.5249H75.6034H71.978H50.9719C50.9719 30.3212 51.2562 28.6862 51.8249 27.6199C52.4647 26.5536 53.531 25.8428 55.0238 25.4873C56.5877 25.1319 58.7914 24.9897 61.6349 25.0608H112.924V8H50.9719C44.5741 8 39.4914 8.71087 35.7238 10.1326C32.0273 11.5543 29.3615 13.6869 27.7265 16.5304C26.1626 19.3739 25.3807 22.9282 25.3807 27.1934V32.5249H8V48.5194H25.3807V81.5747H50.9719V48.5194H71.978H75.6034H87.3327V81.5747H112.924V32.5249H109.085H87.3327ZM274.079 81.1482C279.197 82.4277 284.955 83.0675 291.353 83.0675C299.03 83.0675 305.855 82.0012 311.826 79.8686C317.868 77.6649 322.595 74.5016 326.008 70.3785C329.42 66.2555 331.126 61.2794 331.126 55.4503C331.126 49.3369 329.42 44.2186 326.008 40.0956C322.595 35.9726 317.868 32.8803 311.826 30.8188C305.855 28.7573 299.03 27.7266 291.353 27.7266C284.955 27.7266 279.197 28.4019 274.079 29.7525C268.961 31.0321 264.589 32.9159 260.963 35.4039C257.338 37.8209 254.566 40.7354 252.646 44.1476C252.379 44.623 252.13 45.1053 251.9 45.5946V8H226.309V81.5747H250.407C250.762 79.9397 251.082 77.3095 251.367 73.6841C251.618 71.0717 251.78 68.2464 251.854 65.208C252.097 65.7309 252.361 66.2459 252.646 66.7531C254.566 70.0942 257.338 73.0087 260.963 75.4968C264.589 77.9137 268.961 79.7975 274.079 81.1482ZM251.9 55.4503C251.9 52.3936 253.25 50.0478 255.952 48.4128C258.724 46.7778 262.35 45.6404 266.828 45.0006C271.378 44.3608 276.354 44.0409 281.756 44.0409C289.007 44.0409 294.623 45.0006 298.604 46.9199C302.585 48.7682 304.575 51.6117 304.575 55.4503C304.575 57.9384 303.686 60.0354 301.909 61.7415C300.132 63.4476 297.537 64.7271 294.125 65.5802C290.713 66.4332 286.59 66.8597 281.756 66.8597C276.354 66.8597 271.378 66.5399 266.828 65.9001C262.35 65.1892 258.724 64.0163 255.952 62.3813C253.25 60.7463 251.9 58.436 251.9 55.4503ZM538.433 83.0675C530.756 83.0675 523.932 82.0012 517.96 79.8686C511.989 77.6649 507.262 74.5016 503.779 70.3785C500.366 66.2555 498.66 61.2794 498.66 55.4503C498.66 49.3369 500.366 44.2186 503.779 40.0956C507.262 35.9726 511.989 32.8803 517.96 30.8188C523.932 28.7573 530.756 27.7265 538.433 27.7265C546.964 27.7265 554.321 28.8995 560.506 31.2453C566.761 33.5201 571.56 36.7545 574.901 40.9487C576.11 42.4103 577.106 43.9612 577.886 45.6015V29.326H603.478V81.5747H579.379L578.953 79.1222C578.739 77.4872 578.491 75.1413 578.206 72.0846C578.064 70.039 577.969 67.7546 577.921 65.2315C577.681 65.7463 577.421 66.2535 577.14 66.7531C575.221 70.0942 572.448 73.0087 568.823 75.4968C565.197 77.9137 560.826 79.7975 555.707 81.1482C550.589 82.4277 544.831 83.0675 538.433 83.0675ZM573.728 62.3813C576.5 60.7463 577.886 58.436 577.886 55.4503C577.886 52.3936 576.5 50.0478 573.728 48.4128C571.027 46.7778 567.401 45.6404 562.852 45.0006C558.373 44.3608 553.433 44.0409 548.03 44.0409C540.779 44.0409 535.163 45.0006 531.182 46.9199C527.202 48.7682 525.211 51.6117 525.211 55.4503C525.211 57.9384 526.1 60.0354 527.877 61.7415C529.654 63.4476 532.249 64.7271 535.661 65.5802C539.073 66.4332 543.196 66.8597 548.03 66.8597C553.433 66.8597 558.373 66.5399 562.852 65.9001C567.401 65.1892 571.027 64.0163 573.728 62.3813ZM636.583 29.326H610.992V81.5747H636.583V56.0332C637.859 55.1636 639.53 54.294 641.595 53.4244C644.296 52.2159 647.566 51.1852 651.405 50.3321C655.244 49.4791 659.473 49.0526 664.094 49.0526V27.7266C660.54 27.7266 657.27 28.3308 654.284 29.5393C651.369 30.6767 648.775 32.205 646.5 34.1244C644.225 35.9726 642.306 37.9986 640.742 40.2023C639.178 42.3349 637.934 44.4319 637.01 46.4934C636.858 46.8203 636.716 47.1404 636.583 47.4539V29.326ZM691.868 29.3259H664.678L700.71 81.2547L684.724 102.901H710.849L762.777 29.3259H735.587L713.092 63.4874L691.868 29.3259ZM466.666 81.5747H492.258V29.326H466.666V55.6756C465.281 56.9787 463.503 58.3254 461.335 59.7155C458.634 61.4927 455.47 63.0211 451.845 64.3006C448.29 65.5091 444.416 66.1133 440.222 66.1133C435.744 66.1133 432.083 65.7223 429.239 64.9404C426.396 64.0874 424.299 62.5945 422.948 60.4619C421.668 58.3293 421.029 55.3082 421.029 51.3984V29.326H395.437V54.0641C395.437 59.68 396.362 64.3717 398.21 68.1393C400.058 71.8358 402.617 74.7859 405.887 76.9896C409.157 79.1933 412.889 80.7572 417.083 81.6813C421.277 82.6765 425.72 83.1741 430.412 83.1741C435.104 83.1741 439.369 82.6054 443.208 81.468C447.046 80.3307 450.459 78.8734 453.444 77.0962C456.43 75.248 458.953 73.2575 461.015 71.1249C463.076 68.9923 464.676 66.9308 465.813 64.9404C466.132 64.4149 466.417 63.9068 466.666 63.4161V81.5747ZM337.486 29.326H363.078V47.4539C363.21 47.1404 363.352 46.8203 363.504 46.4934C364.428 44.4319 365.672 42.3349 367.236 40.2023C368.8 37.9986 370.719 35.9726 372.994 34.1244C375.269 32.205 377.864 30.6767 380.778 29.5393C383.764 28.3308 387.034 27.7266 390.588 27.7266V49.0526C385.967 49.0526 381.738 49.4791 377.899 50.3321C374.06 51.1852 370.79 52.2159 368.089 53.4244C366.024 54.294 364.353 55.1636 363.078 56.0332V81.5747H337.486V29.326ZM152.014 75.1769C154.36 74.5371 158.518 74.2172 164.489 74.2172C174.797 74.2172 183.15 73.4353 189.548 71.8713C196.016 70.2364 200.744 67.8905 203.729 64.8338C206.786 61.706 208.314 57.9384 208.314 53.531C208.314 50.4743 207.426 47.8441 205.649 45.6404C203.871 43.4367 201.526 41.5529 198.611 39.989C198.257 39.7944 197.901 39.6042 197.541 39.4184C199.53 39.8306 201.593 40.1985 203.729 40.5221C208.492 41.1619 213.184 41.3752 217.804 41.1619V27.7265H177.072H170.781H164.489C154.182 27.7265 145.758 28.7218 139.218 30.7122C132.749 32.7026 127.986 35.475 124.93 39.0293C121.873 42.5126 120.345 46.6356 120.345 51.3984C120.345 56.5166 121.909 60.7818 125.036 64.194C128.164 67.5351 132.998 70.0586 139.538 71.7647C141.821 72.3353 144.319 72.8064 147.035 73.1779C142.936 73.3404 139.37 73.6513 136.339 74.1106C131.647 74.8214 128.164 76.0655 125.889 77.8426C123.615 79.5487 122.477 81.9301 122.477 84.9868C122.477 86.4086 122.726 87.8303 123.224 89.252C123.792 90.7449 124.859 92.0955 126.423 93.304C128.058 94.5124 130.403 95.4721 133.46 96.183C136.588 96.8939 140.675 97.2493 145.723 97.2493H175.472C179.524 97.2493 182.474 97.427 184.323 97.7824C186.242 98.209 187.202 99.4885 187.202 101.621V104.5H212.793V98.4222C212.793 94.157 211.94 90.7804 210.234 88.2924C208.599 85.8754 205.755 84.1338 201.703 83.0675C197.651 82.0723 192.107 81.5747 185.069 81.5747H153.613C152.049 81.5747 150.805 81.3614 149.881 80.9349C148.957 80.4373 148.495 79.6909 148.495 78.6957C148.495 76.9185 149.668 75.7456 152.014 75.1769ZM164.489 60.2487C169.181 60.2487 172.949 59.8933 175.792 59.1824C178.707 58.4004 180.804 57.3697 182.083 56.0901C183.363 54.8106 184.003 53.3888 184.003 51.8249C184.003 50.0477 183.363 48.5194 182.083 47.2398C180.804 45.9603 178.742 44.9651 175.899 44.2542C173.055 43.5433 169.252 43.1879 164.489 43.1879C159.798 43.1879 155.995 43.5433 153.08 44.2542C150.166 44.9651 148.033 45.9603 146.682 47.2398C145.332 48.5194 144.656 50.0477 144.656 51.8249C144.656 53.3888 145.296 54.8106 146.576 56.0901C147.926 57.3697 150.059 58.4004 152.973 59.1824C155.888 59.8933 159.727 60.2487 164.489 60.2487Z" fill="white"/>
<path d="M50.9719 32.5249H42.9719V40.5249H50.9719V32.5249ZM51.8249 27.6199L44.965 23.504L44.8611 23.6771L44.7661 23.8552L51.8249 27.6199ZM55.0238 25.4873L53.2509 17.6863L53.2108 17.6954L53.1709 17.7049L55.0238 25.4873ZM61.6349 25.0608L61.4349 33.0583L61.5349 33.0608H61.6349V25.0608ZM112.924 25.0608V33.0608H120.924V25.0608H112.924ZM112.924 8H120.924V0H112.924V8ZM35.7238 10.1326L32.8993 2.64779L32.8756 2.65674L32.852 2.66584L35.7238 10.1326ZM27.7265 16.5304L20.7913 12.5426L20.7534 12.6085L20.7168 12.6751L27.7265 16.5304ZM25.3807 32.5249V40.5249H33.3807V32.5249H25.3807ZM8 32.5249V24.5249H0V32.5249H8ZM8 48.5194H0V56.5194H8V48.5194ZM25.3807 48.5194H33.3807V40.5194H25.3807V48.5194ZM25.3807 81.5747H17.3807V89.5747H25.3807V81.5747ZM50.9719 81.5747V89.5747H58.9719V81.5747H50.9719ZM50.9719 48.5194V40.5194H42.9719V48.5194H50.9719ZM87.3327 48.5194H95.3327V40.5194H87.3327V48.5194ZM87.3327 81.5747H79.3327V89.5747H87.3327V81.5747ZM112.924 81.5747V89.5747H120.924V81.5747H112.924ZM112.924 32.5249H120.924V24.5249H112.924V32.5249ZM274.079 81.1482L272.038 88.8834L272.088 88.8967L272.139 88.9093L274.079 81.1482ZM311.826 79.8686L314.517 87.4025L314.542 87.3935L314.567 87.3844L311.826 79.8686ZM326.008 40.0956L319.844 45.1962L326.008 40.0956ZM311.826 30.8188L309.215 38.3808L309.229 38.3856L309.243 38.3903L311.826 30.8188ZM274.079 29.7525L276.019 37.5137L276.07 37.501L276.12 37.4877L274.079 29.7525ZM260.963 35.4039L265.401 42.0603L265.446 42.0305L265.49 42L260.963 35.4039ZM252.646 44.1476L245.674 40.2255L245.674 40.2255L252.646 44.1476ZM251.9 45.5946H243.9L259.139 49.0002L251.9 45.5946ZM251.9 8H259.9V0H251.9V8ZM226.309 8V0H218.309V8H226.309ZM226.309 81.5747H218.309V89.5747H226.309V81.5747ZM250.407 81.5747V89.5747H256.855L258.224 83.2741L250.407 81.5747ZM251.367 73.6841L243.403 72.9184L243.397 72.9884L243.391 73.0585L251.367 73.6841ZM251.854 65.208L259.109 61.8378L243.856 65.0141L251.854 65.208ZM252.646 66.7531L245.674 70.6752L245.691 70.7068L245.709 70.7381L252.646 66.7531ZM260.963 75.4968L256.437 82.0929L256.481 82.1233L256.526 82.1532L260.963 75.4968ZM255.952 48.4128L251.888 41.5218L251.848 41.5451L251.809 41.5688L255.952 48.4128ZM266.828 45.0006L265.714 37.0785L265.705 37.0798L265.697 37.081L266.828 45.0006ZM298.604 46.9199L295.129 54.1261L295.182 54.1514L295.235 54.176L298.604 46.9199ZM266.828 65.9001L265.574 73.8012L265.644 73.8123L265.714 73.8221L266.828 65.9001ZM255.952 62.3813L251.809 69.2253L251.848 69.249L251.888 69.2722L255.952 62.3813ZM517.96 79.8686L515.191 87.3738L515.23 87.3884L515.27 87.4025L517.96 79.8686ZM503.779 70.3785L497.615 75.4791L497.641 75.5104L497.667 75.5414L503.779 70.3785ZM503.779 40.0956L497.667 34.9328L497.641 34.9638L497.615 34.9951L503.779 40.0956ZM560.506 31.2453L557.669 38.7253L557.72 38.7449L557.772 38.7637L560.506 31.2453ZM574.901 40.9487L568.643 45.9333L568.69 45.9917L568.738 46.0491L574.901 40.9487ZM577.886 45.6015L570.663 49.04L585.886 45.6015H577.886ZM577.886 29.326V21.326H569.886V29.326H577.886ZM603.478 29.326H611.478V21.326H603.478V29.326ZM603.478 81.5747V89.5747H611.478V81.5747H603.478ZM579.379 81.5747L571.497 82.9454L572.65 89.5747H579.379V81.5747ZM578.953 79.1222L571.02 80.1569L571.042 80.3254L571.071 80.4929L578.953 79.1222ZM578.206 72.0846L570.226 72.6416L570.232 72.7336L570.241 72.8255L578.206 72.0846ZM577.921 65.2315L585.92 65.0817L570.67 61.8529L577.921 65.2315ZM577.14 66.7531L584.077 70.7382L584.095 70.7067L584.113 70.675L577.14 66.7531ZM568.823 75.4968L573.26 82.1532L573.305 82.1233L573.35 82.0928L568.823 75.4968ZM555.707 81.1482L557.648 88.9093L557.698 88.8967L557.749 88.8834L555.707 81.1482ZM573.728 62.3813L569.664 55.4903L569.624 55.5136L569.585 55.5373L573.728 62.3813ZM573.728 48.4128L569.585 55.2567L569.624 55.2804L569.664 55.3037L573.728 48.4128ZM562.852 45.0006L561.72 52.9202L561.729 52.9214L561.737 52.9226L562.852 45.0006ZM531.182 46.9199L534.551 54.176L534.604 54.1514L534.657 54.1261L531.182 46.9199ZM527.877 61.7415L533.417 55.9704L533.417 55.9703L527.877 61.7415ZM535.661 65.5802L533.721 73.3413L533.721 73.3413L535.661 65.5802ZM562.852 65.9001L563.983 73.8197L564.035 73.8123L564.087 73.8042L562.852 65.9001ZM610.992 29.326V21.326H602.992V29.326H610.992ZM636.583 29.326H644.583V21.326H636.583V29.326ZM610.992 81.5747H602.992V89.5747H610.992V81.5747ZM636.583 81.5747V89.5747H644.583V81.5747H636.583ZM636.583 56.0332L632.078 49.4228L628.583 51.8045V56.0332H636.583ZM641.595 53.4244L644.699 60.7975L644.781 60.7631L644.862 60.7269L641.595 53.4244ZM664.094 49.0526V57.0526H672.094V49.0526H664.094ZM664.094 27.7266H672.094V19.7266H664.094V27.7266ZM654.284 29.5393L657.192 36.9919L657.239 36.9737L657.286 36.9549L654.284 29.5393ZM646.5 34.1244L651.545 40.3333L651.602 40.2865L651.659 40.2387L646.5 34.1244ZM640.742 40.2023L647.193 44.9332L647.23 44.883L647.266 44.8322L640.742 40.2023ZM637.01 46.4934L644.266 49.8619L644.288 49.8141L644.31 49.7659L637.01 46.4934ZM636.583 47.4539H628.583L643.951 50.5702L636.583 47.4539ZM664.678 29.3259V21.3259H649.389L658.105 33.8866L664.678 29.3259ZM691.868 29.3259L698.664 25.1042L696.316 21.3259H691.868V29.3259ZM700.71 81.2547L707.145 86.0073L710.548 81.3999L707.283 76.6941L700.71 81.2547ZM684.724 102.901L678.289 98.148L668.871 110.901H684.724V102.901ZM710.849 102.901V110.901H714.994L717.385 107.514L710.849 102.901ZM762.777 29.3259L769.313 33.939L778.216 21.3259H762.777V29.3259ZM735.587 29.3259V21.3259H731.276L728.905 24.9263L735.587 29.3259ZM713.092 63.4874L706.297 67.7092L712.896 78.3316L719.774 67.8871L713.092 63.4874ZM492.258 81.5747V89.5747H500.258V81.5747H492.258ZM466.666 81.5747H458.666V89.5747H466.666V81.5747ZM492.258 29.326H500.258V21.326H492.258V29.326ZM466.666 29.326V21.326H458.666V29.326H466.666ZM466.666 55.6756L472.147 61.5034L474.666 59.1341V55.6756H466.666ZM461.335 59.7155L457.017 52.9805L456.978 53.0061L456.938 53.0322L461.335 59.7155ZM451.845 64.3006L454.42 71.8748L454.464 71.8599L454.507 71.8445L451.845 64.3006ZM429.239 64.9404L426.94 72.603L427.029 72.6295L427.118 72.654L429.239 64.9404ZM422.948 60.4619L416.088 64.5779L416.138 64.6608L416.189 64.7424L422.948 60.4619ZM421.029 29.326H429.029V21.326H421.029V29.326ZM395.437 29.326V21.326H387.437V29.326H395.437ZM398.21 68.1393L391.028 71.6627L391.041 71.6899L391.054 71.717L398.21 68.1393ZM405.887 76.9896L410.358 70.3554V70.3554L405.887 76.9896ZM417.083 81.6813L418.93 73.8974L418.868 73.8826L418.805 73.8687L417.083 81.6813ZM443.208 81.468L445.48 89.1384L443.208 81.468ZM453.444 77.0962L457.536 83.9705L457.596 83.9349L457.655 83.8983L453.444 77.0962ZM461.015 71.1249L455.263 65.5647V65.5647L461.015 71.1249ZM465.813 64.9404L458.975 60.7885L458.92 60.8792L458.867 60.9713L465.813 64.9404ZM466.666 63.4161H474.666L459.536 59.7887L466.666 63.4161ZM363.078 29.326H371.078V21.326H363.078V29.326ZM337.486 29.326V21.326H329.486V29.326H337.486ZM363.078 47.4539H355.078L370.445 50.5708L363.078 47.4539ZM363.504 46.4934L370.76 49.8625L370.782 49.8143L370.804 49.7659L363.504 46.4934ZM367.236 40.2023L373.687 44.9332L373.724 44.883L373.76 44.8322L367.236 40.2023ZM372.994 34.1244L378.039 40.3333L378.096 40.2865L378.153 40.2387L372.994 34.1244ZM380.778 29.5393L383.686 36.9919L383.733 36.9737L383.78 36.9548L380.778 29.5393ZM390.588 27.7266H398.588V19.7266H390.588V27.7266ZM390.588 49.0526V57.0526H398.588V49.0526H390.588ZM368.089 53.4244L371.194 60.7975L371.275 60.7631L371.356 60.7269L368.089 53.4244ZM363.078 56.0332L358.572 49.4227L355.078 51.8044V56.0332H363.078ZM363.078 81.5747V89.5747H371.078V81.5747H363.078ZM337.486 81.5747H329.486V89.5747H337.486V81.5747ZM152.014 75.1769L153.899 82.9517L154.009 82.9249L154.119 82.895L152.014 75.1769ZM189.548 71.8713L191.447 79.6425L191.478 79.6351L191.508 79.6274L189.548 71.8713ZM203.729 64.8338L198.008 59.2423L198.006 59.2439L203.729 64.8338ZM198.611 39.989L194.756 46.9987L194.792 47.0187L194.829 47.0383L198.611 39.989ZM197.541 39.4184L199.165 31.5848L193.867 46.5246L197.541 39.4184ZM203.729 40.5221L202.531 48.4319L202.597 48.442L202.664 48.4509L203.729 40.5221ZM217.804 41.1619L218.173 49.1534L225.804 48.8012V41.1619H217.804ZM217.804 27.7265H225.804V19.7265H217.804V27.7265ZM139.218 30.7122L136.889 23.0588L136.877 23.0624L136.865 23.066L139.218 30.7122ZM124.93 39.0293L130.943 44.306L130.969 44.276L130.995 44.2456L124.93 39.0293ZM125.036 64.194L119.139 69.5998L119.168 69.6307L119.196 69.6614L125.036 64.194ZM139.538 71.7647L137.519 79.5057L137.558 79.516L137.598 79.5259L139.538 71.7647ZM147.035 73.1779L147.352 81.1716L148.119 65.2517L147.035 73.1779ZM136.339 74.1106L135.141 66.2009H135.141L136.339 74.1106ZM125.889 77.8426L130.689 84.2426L130.752 84.1954L130.815 84.1468L125.889 77.8426ZM123.224 89.252L115.673 91.8948L115.709 91.9979L115.748 92.1L123.224 89.252ZM126.423 93.304L121.531 99.6342L121.599 99.6865L121.667 99.7374L126.423 93.304ZM133.46 96.183L131.648 103.975L131.668 103.98L131.687 103.984L133.46 96.183ZM184.323 97.7824L186.058 89.9729L185.946 89.9481L185.833 89.9264L184.323 97.7824ZM187.202 104.5H179.202V112.5H187.202V104.5ZM212.793 104.5V112.5H220.793V104.5H212.793ZM210.234 88.2924L203.607 92.7748L203.622 92.7958L203.636 92.8166L210.234 88.2924ZM201.703 83.0675L203.739 75.3309L203.676 75.3141L203.612 75.2984L201.703 83.0675ZM149.881 80.9349L146.088 87.9786L146.305 88.0954L146.529 88.1986L149.881 80.9349ZM175.792 59.1824L177.733 66.9435L177.799 66.9269L177.865 66.9091L175.792 59.1824ZM182.083 47.2398L187.74 41.583V41.583L182.083 47.2398ZM175.899 44.2542L177.839 36.4931V36.493L175.899 44.2542ZM153.08 44.2542L151.184 36.482L151.184 36.482L153.08 44.2542ZM146.682 47.2398L141.18 41.4322V41.4322L146.682 47.2398ZM146.576 56.0901L140.919 61.747L140.995 61.8234L141.074 61.8977L146.576 56.0901ZM152.973 59.1824L150.9 66.9091L150.989 66.9329L151.078 66.9546L152.973 59.1824ZM75.6034 40.5249H87.3327V24.5249H75.6034V40.5249ZM71.978 40.5249H75.6034V24.5249H71.978V40.5249ZM50.9719 40.5249H71.978V24.5249H50.9719V40.5249ZM44.7661 23.8552C43.258 26.6829 42.9719 29.9241 42.9719 32.5249H58.9719C58.9719 31.7432 59.0241 31.2623 59.0668 31.0166C59.0869 30.9013 59.0975 30.8811 59.0804 30.9353C59.0636 30.9884 59.0081 31.1514 58.8837 31.3846L44.7661 23.8552ZM53.1709 17.7049C50.1055 18.4347 46.9609 20.1774 44.965 23.504L58.6849 31.7359C58.3764 32.2499 57.9635 32.6625 57.5421 32.9434C57.3464 33.0739 57.1788 33.1561 57.0611 33.2052C56.9449 33.2536 56.8778 33.2695 56.8768 33.2698L53.1709 17.7049ZM61.8348 17.0633C58.7543 16.9863 55.7757 17.1124 53.2509 17.6863L56.7968 33.2884C57.3998 33.1513 58.8285 32.9931 61.4349 33.0583L61.8348 17.0633ZM112.924 17.0608H61.6349V33.0608H112.924V17.0608ZM104.924 8V25.0608H120.924V8H104.924ZM50.9719 16H112.924V0H50.9719V16ZM38.5483 17.6174C41.0405 16.677 45.0384 16 50.9719 16V0C44.1097 0 37.9423 0.744776 32.8993 2.64779L38.5483 17.6174ZM34.6618 20.5182C35.2025 19.5778 36.2441 18.5038 38.5956 17.5994L32.852 2.66584C27.8104 4.60489 23.5206 7.79603 20.7913 12.5426L34.6618 20.5182ZM33.3807 27.1934C33.3807 23.8662 33.9945 21.7345 34.7363 20.3858L20.7168 12.6751C18.3308 17.0133 17.3807 21.9902 17.3807 27.1934H33.3807ZM33.3807 32.5249V27.1934H17.3807V32.5249H33.3807ZM8 40.5249H25.3807V24.5249H8V40.5249ZM16 48.5194V32.5249H0V48.5194H16ZM25.3807 40.5194H8V56.5194H25.3807V40.5194ZM33.3807 81.5747V48.5194H17.3807V81.5747H33.3807ZM50.9719 73.5747H25.3807V89.5747H50.9719V73.5747ZM42.9719 48.5194V81.5747H58.9719V48.5194H42.9719ZM71.978 40.5194H50.9719V56.5194H71.978V40.5194ZM75.6034 40.5194H71.978V56.5194H75.6034V40.5194ZM87.3327 40.5194H75.6034V56.5194H87.3327V40.5194ZM95.3327 81.5747V48.5194H79.3327V81.5747H95.3327ZM112.924 73.5747H87.3327V89.5747H112.924V73.5747ZM104.924 32.5249V81.5747H120.924V32.5249H104.924ZM109.085 40.5249H112.924V24.5249H109.085V40.5249ZM87.3327 40.5249H109.085V24.5249H87.3327V40.5249ZM291.353 75.0675C285.476 75.0675 280.385 74.4786 276.019 73.387L272.139 88.9093C278.009 90.3769 284.434 91.0675 291.353 91.0675V75.0675ZM309.135 72.3347C304.188 74.1016 298.301 75.0675 291.353 75.0675V91.0675C299.76 91.0675 307.521 89.9008 314.517 87.4025L309.135 72.3347ZM319.844 65.278C317.505 68.1044 314.062 70.5376 309.085 72.3528L314.567 87.3844C321.674 84.7922 327.686 80.8987 332.171 75.4791L319.844 65.278ZM323.126 55.4503C323.126 59.5953 321.961 62.721 319.844 65.278L332.171 75.4791C336.879 69.7901 339.126 62.9636 339.126 55.4503H323.126ZM319.844 45.1962C321.902 47.6826 323.126 50.9189 323.126 55.4503H339.126C339.126 47.7549 336.937 40.7547 332.171 34.9951L319.844 45.1962ZM309.243 38.3903C314.158 40.0675 317.542 42.4145 319.844 45.1962L332.171 34.9951C327.649 29.5307 321.578 25.6932 314.409 23.2474L309.243 38.3903ZM291.353 35.7266C298.327 35.7266 304.242 36.664 309.215 38.3808L314.437 23.2568C307.467 20.8506 299.734 19.7266 291.353 19.7266V35.7266ZM276.12 37.4877C280.451 36.3449 285.506 35.7266 291.353 35.7266V19.7266C284.404 19.7266 277.943 20.4588 272.038 22.0173L276.12 37.4877ZM265.49 42C268.19 40.1471 271.646 38.607 276.019 37.5137L272.139 21.9914C266.276 23.4571 260.987 25.6846 256.437 28.8078L265.49 42ZM259.619 48.0697C260.853 45.8751 262.704 43.8582 265.401 42.0603L256.526 28.7475C251.972 31.7835 248.278 35.5957 245.674 40.2255L259.619 48.0697ZM259.139 49.0002C259.286 48.6879 259.445 48.3778 259.619 48.0696L245.674 40.2255C245.312 40.8682 244.974 41.5227 244.661 42.189L259.139 49.0002ZM243.9 8V45.5946H259.9V8H243.9ZM226.309 16H251.9V0H226.309V16ZM234.309 81.5747V8H218.309V81.5747H234.309ZM250.407 73.5747H226.309V89.5747H250.407V73.5747ZM243.391 73.0585C243.11 76.6403 242.822 78.8083 242.59 79.8752L258.224 83.2741C258.703 81.0711 259.054 77.9787 259.342 74.3096L243.391 73.0585ZM243.856 65.0141C243.787 67.8905 243.634 70.523 243.403 72.9184L259.33 74.4498C259.602 71.6205 259.774 68.6022 259.852 65.4019L243.856 65.0141ZM259.619 62.831C259.434 62.5024 259.264 62.1714 259.109 61.8378L244.598 68.5783C244.929 69.2904 245.288 69.9894 245.674 70.6752L259.619 62.831ZM265.49 68.9007C262.714 66.9953 260.826 64.9314 259.583 62.7681L245.709 70.7381C248.305 75.257 251.962 79.0222 256.437 82.0929L265.49 68.9007ZM276.12 73.413C271.678 72.2406 268.154 70.6759 265.401 68.8404L256.526 82.1532C261.023 85.1516 266.244 87.3544 272.038 88.8834L276.12 73.413ZM251.809 41.5688C246.81 44.5947 243.9 49.4835 243.9 55.4503H259.9C259.9 55.2771 259.919 55.2137 259.914 55.2314C259.908 55.2542 259.888 55.3161 259.846 55.3901C259.804 55.4631 259.771 55.4928 259.786 55.479C259.804 55.4612 259.891 55.3797 260.094 55.2568L251.809 41.5688ZM265.697 37.081C260.572 37.8131 255.847 39.1868 251.888 41.5218L260.016 55.3037C261.601 54.3687 264.127 53.4677 267.959 52.9202L265.697 37.081ZM281.756 36.0409C276.044 36.0409 270.69 36.3788 265.714 37.0785L267.942 52.9227C272.065 52.3429 276.663 52.0409 281.756 52.0409V36.0409ZM302.078 39.7138C296.534 37.0408 289.531 36.0409 281.756 36.0409V52.0409C288.483 52.0409 292.712 52.9604 295.129 54.1261L302.078 39.7138ZM312.575 55.4503C312.575 52.0715 311.672 48.7591 309.636 45.8511C307.645 43.0074 304.908 41.0269 301.973 39.6639L295.235 54.176C295.755 54.4174 296.081 54.632 296.274 54.7833C296.46 54.9296 296.521 55.0166 296.528 55.0264C296.531 55.0309 296.53 55.0255 296.535 55.0417C296.542 55.0651 296.575 55.1866 296.575 55.4503H312.575ZM307.449 67.5126C310.816 64.281 312.575 60.0922 312.575 55.4503H296.575C296.575 55.5946 296.562 55.6809 296.555 55.721C296.55 55.7418 296.547 55.7543 296.545 55.7601C296.544 55.7632 296.544 55.7651 296.543 55.7662C296.543 55.7672 296.543 55.7678 296.543 55.768C296.542 55.7682 296.542 55.7684 296.542 55.7689C296.542 55.7693 296.541 55.7703 296.54 55.7721C296.539 55.7752 296.534 55.7834 296.525 55.7968C296.507 55.8224 296.462 55.8816 296.369 55.9704L307.449 67.5126ZM296.066 73.3413C300.285 72.2864 304.326 70.5108 307.449 67.5126L296.369 55.9704C295.938 56.3843 294.79 57.1679 292.185 57.819L296.066 73.3413ZM281.756 74.8597C287.019 74.8597 291.832 74.3996 296.066 73.3413L292.185 57.819C289.594 58.4668 286.161 58.8597 281.756 58.8597V74.8597ZM265.714 73.8221C270.69 74.5219 276.044 74.8597 281.756 74.8597V58.8597C276.663 58.8597 272.065 58.5578 267.942 57.978L265.714 73.8221ZM251.888 69.2722C255.801 71.5799 260.479 72.9924 265.574 73.8012L268.082 57.999C264.22 57.386 261.647 56.4526 260.016 55.4904L251.888 69.2722ZM243.9 55.4503C243.9 61.4255 246.881 66.2423 251.809 69.2253L260.094 55.5373C259.88 55.4074 259.784 55.3197 259.76 55.2967C259.74 55.2775 259.773 55.3063 259.819 55.3847C259.84 55.4212 259.86 55.46 259.875 55.4983C259.891 55.5366 259.9 55.567 259.905 55.586C259.915 55.6266 259.9 55.591 259.9 55.4503H243.9ZM515.27 87.4025C522.265 89.9008 530.026 91.0675 538.433 91.0675V75.0675C531.486 75.0675 525.598 74.1016 520.651 72.3347L515.27 87.4025ZM497.667 75.5414C502.191 80.8961 508.155 84.7775 515.191 87.3738L520.73 72.3634C515.823 70.5523 512.332 68.107 509.89 65.2157L497.667 75.5414ZM490.66 55.4503C490.66 62.9636 492.907 69.7901 497.615 75.4791L509.942 65.278C507.826 62.721 506.66 59.5953 506.66 55.4503H490.66ZM497.615 34.9951C492.849 40.7546 490.66 47.7549 490.66 55.4503H506.66C506.66 50.9189 507.884 47.6826 509.942 45.1962L497.615 34.9951ZM515.35 23.2568C508.251 25.7073 502.228 29.5342 497.667 34.9328L509.89 45.2584C512.295 42.411 515.727 40.0533 520.571 38.3808L515.35 23.2568ZM538.433 19.7265C530.052 19.7265 522.319 20.8506 515.35 23.2568L520.571 38.3808C525.544 36.664 531.46 35.7265 538.433 35.7265V19.7265ZM563.343 23.7653C556.032 20.9922 547.666 19.7265 538.433 19.7265V35.7265C546.261 35.7265 552.611 36.8068 557.669 38.7253L563.343 23.7653ZM581.158 35.964C576.7 30.3681 570.548 26.3845 563.24 23.727L557.772 38.7637C562.975 40.6557 566.419 43.141 568.643 45.9333L581.158 35.964ZM585.11 42.163C584.033 39.9014 582.675 37.7955 581.064 35.8482L568.738 46.0491C569.545 47.0251 570.178 48.0211 570.663 49.04L585.11 42.163ZM569.886 29.326V45.6015H585.886V29.326H569.886ZM603.478 21.326H577.886V37.326H603.478V21.326ZM611.478 81.5747V29.326H595.478V81.5747H611.478ZM579.379 89.5747H603.478V73.5747H579.379V89.5747ZM571.071 80.4929L571.497 82.9454L587.261 80.204L586.834 77.7515L571.071 80.4929ZM570.241 72.8255C570.528 75.9123 570.787 78.3742 571.02 80.1569L586.885 78.0875C586.691 76.6002 586.453 74.3704 586.172 71.3437L570.241 72.8255ZM569.923 65.3812C569.972 68.0106 570.072 70.4337 570.226 72.6416L586.187 71.5277C586.055 69.6443 585.965 67.4986 585.92 65.0817L569.923 65.3812ZM584.113 70.675C584.493 69.9995 584.846 69.3111 585.173 68.61L570.67 61.8529C570.517 62.1815 570.349 62.5075 570.167 62.8312L584.113 70.675ZM573.35 82.0928C577.824 79.0222 581.481 75.257 584.077 70.7382L570.203 62.7681C568.96 64.9314 567.072 66.9953 564.296 68.9007L573.35 82.0928ZM557.749 88.8834C563.543 87.3544 568.763 85.1515 573.26 82.1532L564.385 68.8404C561.632 70.6759 558.109 72.2406 553.666 73.413L557.749 88.8834ZM538.433 91.0675C545.352 91.0675 551.777 90.3769 557.648 88.9093L553.767 73.387C549.401 74.4786 544.31 75.0675 538.433 75.0675V91.0675ZM569.886 55.4503C569.886 55.5745 569.872 55.5934 569.887 55.5372C569.894 55.5108 569.906 55.4739 569.924 55.4305C569.942 55.3869 569.964 55.3447 569.987 55.3063C570.036 55.2243 570.069 55.1985 570.041 55.2247C570.009 55.255 569.899 55.3515 569.664 55.4903L577.792 69.2722C582.772 66.3351 585.886 61.5261 585.886 55.4503H569.886ZM569.664 55.3037C569.888 55.4358 569.989 55.5263 570.015 55.5513C570.037 55.5722 570.005 55.5452 569.959 55.4682C569.938 55.4326 569.92 55.3952 569.905 55.3587C569.89 55.3223 569.881 55.2946 569.877 55.2793C569.869 55.2461 569.886 55.2932 569.886 55.4503H585.886C585.886 49.3833 582.845 44.5022 577.792 41.5218L569.664 55.3037ZM561.737 52.9226C565.663 53.4746 568.131 54.3767 569.585 55.2567L577.87 41.5688C573.922 39.1789 569.14 37.8061 563.966 37.0785L561.737 52.9226ZM548.03 52.0409C553.124 52.0409 557.68 52.343 561.72 52.9202L563.983 37.081C559.066 36.3786 553.741 36.0409 548.03 36.0409V52.0409ZM534.657 54.1261C537.075 52.9604 541.303 52.0409 548.03 52.0409V36.0409C540.255 36.0409 533.252 37.0408 527.708 39.7138L534.657 54.1261ZM533.211 55.4503C533.211 55.1866 533.245 55.0651 533.251 55.0417C533.256 55.0255 533.255 55.0309 533.258 55.0264C533.265 55.0166 533.326 54.9296 533.513 54.7833C533.705 54.632 534.031 54.4174 534.551 54.176L527.814 39.6639C524.878 41.0268 522.141 43.0073 520.15 45.851C518.115 48.7591 517.211 52.0715 517.211 55.4503H533.211ZM533.417 55.9703C533.325 55.8815 533.279 55.8223 533.262 55.7968C533.252 55.7833 533.247 55.7752 533.246 55.7721C533.245 55.7703 533.244 55.7693 533.244 55.7688C533.244 55.7684 533.244 55.7682 533.244 55.768C533.244 55.7678 533.243 55.7672 533.243 55.7662C533.243 55.7651 533.242 55.7632 533.241 55.7601C533.239 55.7543 533.236 55.7418 533.232 55.721C533.224 55.6809 533.211 55.5946 533.211 55.4503H517.211C517.211 60.0922 518.97 64.2811 522.337 67.5127L533.417 55.9703ZM537.601 57.819C534.997 57.1679 533.848 56.3844 533.417 55.9704L522.337 67.5126C525.46 70.5108 529.501 72.2864 533.721 73.3413L537.601 57.819ZM548.03 58.8597C543.625 58.8597 540.192 58.4668 537.601 57.819L533.721 73.3413C537.954 74.3996 542.767 74.8597 548.03 74.8597V58.8597ZM561.72 57.9805C557.68 58.5576 553.124 58.8597 548.03 58.8597V74.8597C553.741 74.8597 559.066 74.5221 563.983 73.8197L561.72 57.9805ZM569.585 55.5373C568.085 56.4455 565.568 57.3785 561.617 57.996L564.087 73.8042C569.234 72.9999 573.968 71.587 577.87 69.2252L569.585 55.5373ZM610.992 37.326H636.583V21.326H610.992V37.326ZM618.992 81.5747V29.326H602.992V81.5747H618.992ZM636.583 73.5747H610.992V89.5747H636.583V73.5747ZM628.583 56.0332V81.5747H644.583V56.0332H628.583ZM638.491 46.0513C636.133 47.044 633.942 48.1517 632.078 49.4228L641.089 62.6436C641.776 62.1754 642.926 61.544 644.699 60.7975L638.491 46.0513ZM649.67 42.5226C645.465 43.457 641.652 44.635 638.328 46.1218L644.862 60.7269C646.941 59.7968 649.668 58.9133 653.14 58.1416L649.67 42.5226ZM664.094 41.0526C658.988 41.0526 654.167 41.5232 649.67 42.5226L653.14 58.1416C656.32 57.4349 659.958 57.0526 664.094 57.0526V41.0526ZM656.094 27.7266V49.0526H672.094V27.7266H656.094ZM657.286 36.9549C659.223 36.1705 661.462 35.7266 664.094 35.7266V19.7266C659.617 19.7266 655.316 20.4911 651.282 22.1237L657.286 36.9549ZM651.659 40.2387C653.228 38.9145 655.054 37.8263 657.192 36.9919L651.376 22.0866C647.685 23.527 644.321 25.4955 641.341 28.01L651.659 40.2387ZM647.266 44.8322C648.377 43.2671 649.785 41.7631 651.545 40.3333L641.455 27.9154C638.665 30.1822 636.235 32.73 634.218 35.5723L647.266 44.8322ZM644.31 49.7659C644.968 48.2975 645.908 46.6858 647.193 44.9332L634.291 35.4714C632.448 37.9839 630.9 40.5664 629.71 43.221L644.31 49.7659ZM643.951 50.5702C644.046 50.347 644.151 50.111 644.266 49.8619L629.754 43.125C629.566 43.5296 629.386 43.9339 629.215 44.3376L643.951 50.5702ZM628.583 29.326V47.4539H644.583V29.326H628.583ZM664.678 37.3259H691.868V21.3259H664.678V37.3259ZM707.283 76.6941L671.25 24.7653L658.105 33.8866L694.137 85.8154L707.283 76.6941ZM691.159 107.653L707.145 86.0073L694.275 76.5022L678.289 98.148L691.159 107.653ZM710.849 94.9006H684.724V110.901H710.849V94.9006ZM756.241 24.7128L704.312 98.2875L717.385 107.514L769.313 33.939L756.241 24.7128ZM735.587 37.3259H762.777V21.3259H735.587V37.3259ZM719.774 67.8871L742.268 33.7256L728.905 24.9263L706.411 59.0878L719.774 67.8871ZM685.073 33.5477L706.297 67.7092L719.887 59.2656L698.664 25.1042L685.073 33.5477ZM492.258 73.5747H466.666V89.5747H492.258V73.5747ZM484.258 29.326V81.5747H500.258V29.326H484.258ZM466.666 37.326H492.258V21.326H466.666V37.326ZM474.666 55.6756V29.326H458.666V55.6756H474.666ZM465.652 66.4505C468.101 64.881 470.302 63.2386 472.147 61.5034L461.186 49.8478C460.259 50.7188 458.906 51.7697 457.017 52.9805L465.652 66.4505ZM454.507 71.8445C458.632 70.3887 462.399 68.5915 465.732 66.3989L456.938 53.0322C454.868 54.3939 452.308 55.6535 449.182 56.7567L454.507 71.8445ZM440.222 74.1133C445.19 74.1133 449.945 73.3962 454.42 71.8748L449.27 56.7264C446.636 57.622 443.642 58.1133 440.222 58.1133V74.1133ZM427.118 72.654C430.911 73.6972 435.357 74.1133 440.222 74.1133V58.1133C436.13 58.1133 433.254 57.7475 431.36 57.2267L427.118 72.654ZM416.189 64.7424C418.747 68.7813 422.594 71.2991 426.94 72.603L431.538 57.2778C430.197 56.8756 429.85 56.4078 429.707 56.1815L416.189 64.7424ZM413.029 51.3984C413.029 56.0018 413.751 60.6832 416.088 64.5779L429.808 56.3459C429.586 55.9755 429.029 54.6145 429.029 51.3984H413.029ZM413.029 29.326V51.3984H429.029V29.326H413.029ZM395.437 37.326H421.029V21.326H395.437V37.326ZM403.437 54.0641V29.326H387.437V54.0641H403.437ZM405.392 64.6159C404.232 62.2509 403.437 58.8524 403.437 54.0641H387.437C387.437 60.5075 388.491 66.4925 391.028 71.6627L405.392 64.6159ZM410.358 70.3554C408.287 68.9598 406.628 67.0866 405.365 64.5616L391.054 71.717C393.488 76.585 396.947 80.6119 401.416 83.6237L410.358 70.3554ZM418.805 73.8687C415.505 73.1417 412.722 71.9487 410.358 70.3554L401.416 83.6237C405.592 86.4378 410.273 88.3727 415.362 89.4939L418.805 73.8687ZM430.412 75.1741C426.288 75.1741 422.469 74.737 418.93 73.8974L415.236 89.4652C420.086 90.616 425.153 91.1741 430.412 91.1741V75.1741ZM440.935 73.7977C437.948 74.6827 434.463 75.1741 430.412 75.1741V91.1741C435.745 91.1741 440.79 90.5282 445.48 89.1384L440.935 73.7977ZM449.352 70.2219C447.017 71.6122 444.231 72.8211 440.935 73.7977L445.48 89.1384C449.862 87.8403 453.901 86.1345 457.536 83.9705L449.352 70.2219ZM455.263 65.5647C453.737 67.1435 451.756 68.7325 449.233 70.2941L457.655 83.8983C461.104 81.7634 464.17 79.3716 466.767 76.6851L455.263 65.5647ZM458.867 60.9713C458.14 62.2436 456.989 63.7788 455.263 65.5647L466.767 76.6851C469.163 74.2059 471.211 71.6181 472.759 68.9095L458.867 60.9713ZM459.536 59.7887C459.387 60.082 459.202 60.4149 458.975 60.7885L472.652 69.0923C473.063 68.415 473.447 67.7317 473.797 67.0434L459.536 59.7887ZM474.666 81.5747V63.4161H458.666V81.5747H474.666ZM363.078 21.326H337.486V37.326H363.078V21.326ZM371.078 47.4539V29.326H355.078V47.4539H371.078ZM356.248 43.1244C356.06 43.5302 355.88 43.9344 355.71 44.3369L370.445 50.5708C370.54 50.3465 370.645 50.1104 370.76 49.8625L356.248 43.1244ZM360.785 35.4714C358.942 37.9839 357.394 40.5664 356.204 43.221L370.804 49.7659C371.462 48.2974 372.402 46.6858 373.687 44.9332L360.785 35.4714ZM367.949 27.9154C365.16 30.1822 362.729 32.7301 360.712 35.5723L373.76 44.8322C374.871 43.2671 376.279 41.763 378.039 40.3333L367.949 27.9154ZM377.87 22.0866C374.179 23.527 370.815 25.4955 367.835 28.01L378.153 40.2387C379.722 38.9145 381.548 37.8263 383.686 36.9919L377.87 22.0866ZM390.588 19.7266C386.112 19.7266 381.81 20.4911 377.777 22.1237L383.78 36.9548C385.717 36.1705 387.956 35.7266 390.588 35.7266V19.7266ZM398.588 49.0526V27.7266H382.588V49.0526H398.588ZM379.635 58.1416C382.815 57.4349 386.453 57.0526 390.588 57.0526V41.0526C385.482 41.0526 380.661 41.5232 376.164 42.5226L379.635 58.1416ZM371.356 60.7269C373.435 59.7968 376.162 58.9133 379.635 58.1416L376.164 42.5226C371.959 43.457 368.146 44.635 364.822 46.1218L371.356 60.7269ZM367.583 62.6436C368.27 62.1754 369.421 61.544 371.194 60.7975L364.985 46.0513C362.627 47.044 360.436 48.1517 358.572 49.4227L367.583 62.6436ZM371.078 81.5747V56.0332H355.078V81.5747H371.078ZM337.486 89.5747H363.078V73.5747H337.486V89.5747ZM329.486 29.326V81.5747H345.486V29.326H329.486ZM164.489 66.2172C158.541 66.2172 153.402 66.506 149.909 67.4588L154.119 82.895C155.317 82.5682 158.496 82.2172 164.489 82.2172V66.2172ZM187.648 64.1002C182.118 65.4519 174.473 66.2172 164.489 66.2172V82.2172C175.121 82.2172 184.181 81.4187 191.447 79.6425L187.648 64.1002ZM198.006 59.2439C196.477 60.81 193.362 62.6558 187.587 64.1152L191.508 79.6274C198.671 77.8169 205.011 74.971 209.452 70.4237L198.006 59.2439ZM200.314 53.531C200.314 55.8667 199.591 57.6221 198.008 59.2423L209.451 70.4252C213.981 65.7898 216.314 60.0101 216.314 53.531H200.314ZM199.421 50.6624C199.957 51.3268 200.314 52.1456 200.314 53.531H216.314C216.314 48.8029 214.894 44.3613 211.876 40.6184L199.421 50.6624ZM194.829 47.0383C196.958 48.1807 198.419 49.4191 199.421 50.6624L211.876 40.6184C209.324 37.4543 206.094 34.9251 202.394 32.9397L194.829 47.0383ZM193.867 46.5246C194.166 46.6791 194.462 46.8372 194.756 46.9987L202.466 32.9793C202.053 32.7517 201.636 32.5293 201.216 32.3122L193.867 46.5246ZM204.928 32.6124C202.925 32.3089 201.004 31.966 199.165 31.5848L195.918 47.252C198.057 47.6951 200.261 48.088 202.531 48.4319L204.928 32.6124ZM217.436 33.1704C213.312 33.3607 209.1 33.1718 204.794 32.5934L202.664 48.4509C207.884 49.1521 213.056 49.3896 218.173 49.1534L217.436 33.1704ZM209.804 27.7265V41.1619H225.804V27.7265H209.804ZM177.072 35.7265H217.804V19.7265H177.072V35.7265ZM170.781 35.7265H177.072V19.7265H170.781V35.7265ZM164.489 35.7265H170.781V19.7265H164.489V35.7265ZM141.547 38.3656C147.053 36.69 154.614 35.7265 164.489 35.7265V19.7265C153.75 19.7265 144.463 20.7536 136.889 23.0588L141.547 38.3656ZM130.995 44.2456C132.724 42.2358 135.938 40.0916 141.571 38.3584L136.865 23.066C129.56 25.3137 123.249 28.7142 118.864 33.813L130.995 44.2456ZM128.345 51.3984C128.345 48.5183 129.205 46.286 130.943 44.306L118.917 33.7526C114.541 38.7391 112.345 44.7529 112.345 51.3984H128.345ZM130.934 58.7882C129.306 57.0121 128.345 54.7442 128.345 51.3984H112.345C112.345 58.2891 114.512 64.5516 119.139 69.5998L130.934 58.7882ZM141.557 64.0238C135.825 62.5285 132.59 60.5567 130.877 58.7266L119.196 69.6614C123.739 74.5135 130.171 77.5888 137.519 79.5057L141.557 64.0238ZM148.119 65.2517C145.646 64.9134 143.437 64.4933 141.478 64.0036L137.598 79.5259C140.204 80.1774 142.993 80.6994 145.951 81.104L148.119 65.2517ZM137.538 82.0203C140.198 81.6172 143.456 81.3261 147.352 81.1716L146.718 65.1841C142.415 65.3548 138.542 65.6854 135.141 66.2009L137.538 82.0203ZM130.815 84.1468C131.519 83.5962 133.426 82.6432 137.538 82.0203L135.141 66.2009C129.869 66.9997 124.809 68.5347 120.964 71.5384L130.815 84.1468ZM130.477 84.9868C130.477 84.4633 130.57 84.3122 130.549 84.3561C130.543 84.3684 130.535 84.3785 130.538 84.3755C130.542 84.3705 130.582 84.3231 130.689 84.2426L121.089 71.4426C116.631 74.7865 114.477 79.6314 114.477 84.9868H130.477ZM130.775 86.6093C130.556 85.986 130.477 85.4563 130.477 84.9868H114.477C114.477 87.3609 114.896 89.6746 115.673 91.8948L130.775 86.6093ZM131.314 86.9737C130.974 86.711 130.803 86.521 130.729 86.4275C130.661 86.3411 130.673 86.3343 130.7 86.4041L115.748 92.1C116.952 95.262 119.077 97.738 121.531 99.6342L131.314 86.9737ZM135.272 88.3909C132.76 87.8067 131.589 87.1746 131.178 86.8706L121.667 99.7374C124.526 101.85 128.047 103.137 131.648 103.975L135.272 88.3909ZM145.723 89.2493C140.974 89.2493 137.547 88.9077 135.233 88.3819L131.687 103.984C135.629 104.88 140.377 105.249 145.723 105.249V89.2493ZM175.472 89.2493H145.723V105.249H175.472V89.2493ZM185.833 89.9264C183.188 89.4176 179.59 89.2493 175.472 89.2493V105.249C179.459 105.249 181.761 105.436 182.812 105.638L185.833 89.9264ZM195.202 101.621C195.202 99.3968 194.698 96.6838 192.882 94.262C191.01 91.7663 188.438 90.5019 186.058 89.9729L182.587 105.592C182.126 105.49 180.994 105.078 180.082 103.862C179.225 102.72 179.202 101.713 179.202 101.621H195.202ZM195.202 104.5V101.621H179.202V104.5H195.202ZM212.793 96.5001H187.202V112.5H212.793V96.5001ZM204.793 98.4222V104.5H220.793V98.4222H204.793ZM203.636 92.8166C204.122 93.5259 204.793 95.1288 204.793 98.4222H220.793C220.793 93.1852 219.757 88.0349 216.832 83.7681L203.636 92.8166ZM199.667 90.8041C202.651 91.5892 203.448 92.5391 203.607 92.7748L216.86 83.8099C213.749 79.2118 208.86 76.6784 203.739 75.3309L199.667 90.8041ZM185.069 89.5747C191.838 89.5747 196.649 90.0639 199.795 90.8366L203.612 75.2984C198.654 74.0807 192.375 73.5747 185.069 73.5747V89.5747ZM153.613 89.5747H185.069V73.5747H153.613V89.5747ZM146.529 88.1986C148.915 89.3001 151.452 89.5747 153.613 89.5747V73.5747C153.182 73.5747 152.944 73.5443 152.859 73.5298C152.821 73.5232 152.837 73.5239 152.898 73.5419C152.959 73.5599 153.076 73.5986 153.234 73.6712L146.529 88.1986ZM140.495 78.6957C140.495 80.4772 140.925 82.4118 142.039 84.2127C143.14 85.9911 144.634 87.1956 146.088 87.9786L153.674 73.8912C154.204 74.1766 155.005 74.759 155.644 75.7911C156.296 76.8455 156.495 77.9094 156.495 78.6957H140.495ZM150.129 67.4021C148.14 67.8843 145.713 68.8312 143.718 70.8263C141.517 73.0275 140.495 75.853 140.495 78.6957H156.495C156.495 79.1429 156.418 79.754 156.149 80.4318C155.875 81.1204 155.473 81.6985 155.032 82.1399C154.209 82.9621 153.542 83.0381 153.899 82.9517L150.129 67.4021ZM173.852 51.4212C171.905 51.9079 168.868 52.2487 164.489 52.2487V68.2487C169.495 68.2487 173.992 67.8786 177.733 66.9435L173.852 51.4212ZM176.427 50.4333C176.559 50.3013 176.5 50.4084 176.022 50.6433C175.552 50.8744 174.811 51.1626 173.719 51.4556L177.865 66.9091C181.333 65.9788 185.012 64.4757 187.74 61.747L176.427 50.4333ZM176.003 51.8249C176.003 51.4787 176.081 51.1058 176.228 50.7812C176.364 50.4783 176.489 50.3706 176.427 50.4333L187.74 61.747C190.265 59.2222 192.003 55.846 192.003 51.8249H176.003ZM176.427 52.8967C176.399 52.8689 176.261 52.7156 176.143 52.4349C176.025 52.1513 176.003 51.9191 176.003 51.8249H192.003C192.003 47.883 190.489 44.3321 187.74 41.583L176.427 52.8967ZM173.959 52.0153C174.99 52.2731 175.676 52.5334 176.1 52.7382C176.527 52.9444 176.564 53.034 176.427 52.8967L187.74 41.583C184.984 38.8269 181.304 37.3593 177.839 36.4931L173.959 52.0153ZM164.489 51.1879C168.951 51.1879 172.019 51.5304 173.959 52.0153L177.839 36.493C174.092 35.5563 169.554 35.1879 164.489 35.1879V51.1879ZM154.976 52.0264C157.024 51.5267 160.121 51.1879 164.489 51.1879V35.1879C159.474 35.1879 154.965 35.5599 151.184 36.482L154.976 52.0264ZM152.184 53.0475C152.095 53.1318 152.194 53.009 152.678 52.7832C153.158 52.5593 153.898 52.2892 154.976 52.0263L151.184 36.482C147.662 37.3413 143.981 38.7788 141.18 41.4322L152.184 53.0475ZM152.656 51.8249C152.656 51.9779 152.621 52.2609 152.48 52.5791C152.416 52.7252 152.345 52.8421 152.283 52.9271C152.223 53.0105 152.183 53.0488 152.184 53.0475L141.18 41.4322C138.319 44.143 136.656 47.7379 136.656 51.8249H152.656ZM152.232 50.4333C152.17 50.3706 152.295 50.4783 152.432 50.7812C152.578 51.1058 152.656 51.4787 152.656 51.8249H136.656C136.656 55.846 138.394 59.2222 140.919 61.747L152.232 50.4333ZM155.046 51.4556C153.949 51.1613 153.181 50.8672 152.669 50.6201C152.152 50.3701 152.018 50.2258 152.078 50.2825L141.074 61.8977C143.812 64.4923 147.414 65.9738 150.9 66.9091L155.046 51.4556ZM164.489 52.2487C160.039 52.2487 156.911 51.9082 154.869 51.4102L151.078 66.9546C154.865 67.8783 159.414 68.2487 164.489 68.2487V52.2487Z" fill="black" mask="url(#path-1-outside-1_202_938)"/>


</g>

</svg>
