<svg width="456" height="32" viewBox="0 0 456 32" fill="none" xmlns="http://www.w3.org/2000/svg">
<path d="M47.4132 9.88235V0.941176H0V31.0588H11.7592V21.8824H40.9221V13.8824H11.7592V9.88235H47.4132Z" fill="white"/>
<path d="M64.5784 0.941176H52.8192V31.0588H64.5784V0.941176Z" fill="white"/>
<path d="M87.1054 31.2471C90.5234 31.749 94.2707 32 98.3473 32C104.086 32 108.868 31.0275 112.694 29.0824C115.59 27.6095 117.948 25.642 119.766 23.1799C119.667 23.4955 119.567 23.816 119.467 24.1412C119.091 25.4275 118.777 26.6667 118.526 27.8588C118.275 29.051 118.15 30.1176 118.15 31.0588H127.369V15.4824H102.298V20.4235H117.571C116.624 20.7906 115.672 21.12 114.716 21.4118C112.897 21.9765 110.859 22.4 108.601 22.6824C106.375 22.9333 103.741 23.0588 100.699 23.0588C96.3717 23.0588 92.891 22.8078 90.2569 22.3059C87.6228 21.8039 85.71 21.051 84.5184 20.0471C83.3268 19.0431 82.731 17.7726 82.731 16.2353C82.731 14.4784 83.3111 13.0667 84.4714 12C85.6316 10.9333 87.466 10.1647 89.9747 9.69412C92.4833 9.19216 95.7445 8.94118 99.7584 8.94118C103.176 8.94118 105.889 9.1451 107.896 9.55294C109.903 9.96078 111.408 10.4941 112.411 11.1529C113.415 11.7804 114.105 12.4392 114.481 13.1294H126.711C126.554 10.4314 125.441 8.1098 123.371 6.1647C121.301 4.18824 118.291 2.66667 114.34 1.6C110.42 0.533333 105.56 0 99.7584 0C95.3369 0 91.3231 0.266667 87.7169 0.800001C84.1421 1.33333 81.0533 2.22745 78.4506 3.48235C75.8793 4.70588 73.9037 6.36863 72.524 8.47059C71.1442 10.5412 70.4544 13.1294 70.4544 16.2353C70.4544 19.3412 71.1285 21.9137 72.4769 23.9529C73.8567 25.9922 75.7852 27.6078 78.2625 28.8C80.7711 29.9608 83.7188 30.7765 87.1054 31.2471Z" fill="white"/>
<path fill-rule="evenodd" clip-rule="evenodd" d="M133.006 0.941176V31.0588H164.991C168.441 31.0588 171.435 30.7608 173.975 30.1647C176.515 29.5373 178.475 28.5961 179.855 27.3412C181.235 26.0863 181.925 24.4863 181.925 22.5412C181.925 20.9412 181.501 19.6863 180.655 18.7765C179.808 17.8667 178.632 17.1922 177.127 16.7529C175.622 16.3137 173.866 16.0314 171.859 15.9059C171.224 15.8662 170.571 15.8328 169.902 15.8056C171.101 15.6942 172.208 15.5551 173.223 15.3882C175.543 14.9804 177.315 14.2745 178.538 13.2706C179.792 12.2667 180.419 10.8235 180.419 8.94118C180.419 5.99216 178.977 3.92157 176.092 2.72941C173.207 1.53725 168.723 0.941176 162.639 0.941176H133.006ZM164.991 22.2118H144.765V18.2588H164.991C166.089 18.2588 166.982 18.3373 167.672 18.4941C168.362 18.6196 168.864 18.8235 169.178 19.1059C169.522 19.3882 169.695 19.7647 169.695 20.2353C169.695 20.9255 169.319 21.4275 168.566 21.7412C167.845 22.0549 166.653 22.2118 164.991 22.2118ZM163.016 13.7412H144.765V9.78824H163.016C164.678 9.78824 165.869 9.9451 166.591 10.2588C167.343 10.5412 167.719 11.0431 167.719 11.7647C167.719 12.4549 167.343 12.9569 166.591 13.2706C165.869 13.5843 164.678 13.7412 163.016 13.7412Z" fill="white"/>
<path fill-rule="evenodd" clip-rule="evenodd" d="M185.08 0.941176V31.0588H196.839V22.5882H215.231C217.739 22.5882 219.59 22.6824 220.781 22.8706C222.004 23.0588 222.788 23.4039 223.133 23.9059C223.509 24.3765 223.697 25.0824 223.697 26.0235V31.0588H235.457V24.6118C235.457 23.2314 235.049 22.1804 234.234 21.4588C233.45 20.7059 232.039 20.1882 230 19.9059C229.525 19.8391 229.002 19.7793 228.431 19.7265C228.705 19.6805 228.978 19.6305 229.248 19.5765C230.659 19.2941 231.913 18.8392 233.011 18.2118C234.108 17.5843 234.971 16.7059 235.598 15.5765C236.225 14.4471 236.539 13.0196 236.539 11.2941C236.539 8.6902 235.864 6.63529 234.516 5.12941C233.199 3.62353 231.396 2.55686 229.107 1.92941C226.849 1.27059 224.293 0.941176 221.44 0.941176H185.08ZM221.44 14.7294H196.839V10.3529H221.44C222.38 10.3529 223.164 10.5098 223.792 10.8235C224.45 11.1059 224.779 11.6549 224.779 12.4706C224.779 13.349 224.45 13.9451 223.792 14.2588C223.164 14.5726 222.38 14.7294 221.44 14.7294Z" fill="white"/>
<path d="M284.395 0.941176V13.8824C284.395 16.3922 283.768 18.3059 282.513 19.6235C281.291 20.9412 279.534 21.851 277.245 22.3529C274.956 22.8235 272.259 23.0588 269.155 23.0588C265.956 23.0588 263.213 22.8235 260.924 22.3529C258.666 21.851 256.925 20.9412 255.702 19.6235C254.479 18.3059 253.868 16.3922 253.868 13.8824V0.941176H242.109V16C242.109 18.6667 242.579 20.9412 243.52 22.8235C244.492 24.6745 245.825 26.2118 247.518 27.4353C249.211 28.6275 251.187 29.5529 253.445 30.2118C255.734 30.8706 258.211 31.3255 260.876 31.5765C263.542 31.8588 266.301 32 269.155 32C271.852 32 274.502 31.8588 277.104 31.5765C279.738 31.3255 282.2 30.8706 284.489 30.2118C286.778 29.5529 288.801 28.6275 290.557 27.4353C292.313 26.2118 293.677 24.6745 294.649 22.8235C295.652 20.9412 296.154 18.6667 296.154 16V0.941176H284.395Z" fill="white"/>
<path fill-rule="evenodd" clip-rule="evenodd" d="M312.502 26.4941L309.572 31.0588H296.637L316.816 0.941176H329.892L350.259 31.0588H337.324L334.369 26.4941H312.502ZM317.033 19.4353H329.801L323.391 9.53085L317.033 19.4353Z" fill="white"/>
<path fill-rule="evenodd" clip-rule="evenodd" d="M389.448 0.941176H353.088V31.0588H364.848V22.5882H383.239C385.748 22.5882 387.598 22.6824 388.789 22.8706C390.012 23.0588 390.796 23.4039 391.141 23.9059C391.518 24.3765 391.706 25.0824 391.706 26.0235V31.0588H403.465V24.6118C403.465 23.2314 403.057 22.1804 402.242 21.4588C401.458 20.7059 400.047 20.1882 398.009 19.9059C397.534 19.8391 397.01 19.7793 396.439 19.7265C396.714 19.6805 396.986 19.6305 397.256 19.5765C398.667 19.2941 399.921 18.8392 401.019 18.2118C402.117 17.5843 402.979 16.7059 403.606 15.5765C404.233 14.4471 404.547 13.0196 404.547 11.2941C404.547 8.6902 403.873 6.63529 402.524 5.12941C401.207 3.62353 399.404 2.55686 397.115 1.92941C394.857 1.27059 392.301 0.941176 389.448 0.941176ZM389.448 14.7294H364.848V10.3529H389.448C390.389 10.3529 391.173 10.5098 391.8 10.8235C392.458 11.1059 392.788 11.6549 392.788 12.4706C392.788 13.349 392.458 13.9451 391.8 14.2588C391.173 14.5726 390.389 14.7294 389.448 14.7294Z" fill="white"/>
<path d="M436.95 23.3882L456 0.941176H442.124L431.121 14.9547L420.017 0.941176H406.141L425.191 23.3882V31.0588H436.95V23.3882Z" fill="white"/>
</svg>
