<svg width="64" height="64" viewBox="0 0 64 64" fill="none" xmlns="http://www.w3.org/2000/svg">
<path fill-rule="evenodd" clip-rule="evenodd" d="M64 49.6591L49.6912 64L39.3551 53.6406C37.1602 54.3662 34.8144 54.7589 32.377 54.7589C21.6308 54.7589 12.6633 47.1268 10.5762 36.9759L0 0L37.9763 10.8523C47.5593 13.3409 54.6362 22.067 54.6362 32.4497C54.6362 34.8124 54.2697 37.0892 53.5907 39.2263L64 49.6591ZM36.6305 15.8101L12.5262 8.92196L30.2965 26.7322C30.9454 26.495 31.6461 26.3655 32.3769 26.3655C35.7297 26.3655 38.4476 29.0896 38.4476 32.4499C38.4476 35.8102 35.7297 38.5342 32.3769 38.5342C29.0242 38.5342 26.3062 35.8102 26.3062 32.4499C26.3062 31.7176 26.4353 31.0155 26.6719 30.3652L8.93254 12.5859L15.5575 35.7477L15.5968 35.9389C17.2029 43.7502 24.1116 49.6212 32.377 49.6212C34.262 49.6212 36.0661 49.318 37.7493 48.7616L40.7475 47.7704L49.6912 56.7343L56.7506 49.6591L47.7593 40.6476L48.7062 37.6673C49.227 36.0284 49.51 34.2771 49.51 32.4497C49.51 24.4652 44.0679 17.7415 36.6906 15.8257L36.6305 15.8101Z" fill="#D7FE63"/>
<path d="M30.2965 26.7322L12.5262 8.92196L36.6305 15.8101L36.6906 15.8257C44.0679 17.7415 49.51 24.4652 49.51 32.4497C49.51 34.2771 49.227 36.0284 48.7062 37.6673L47.7593 40.6476L56.7506 49.6591L49.6912 56.7343L40.7475 47.7704L37.7493 48.7616C36.0661 49.318 34.262 49.6212 32.377 49.6212C24.1116 49.6212 17.2029 43.7502 15.5968 35.9389L15.5575 35.7477L8.93254 12.5859L26.6719 30.3652C26.4353 31.0155 26.3062 31.7176 26.3062 32.4499C26.3062 35.8102 29.0242 38.5342 32.3769 38.5342C35.7297 38.5342 38.4476 35.8102 38.4476 32.4499C38.4476 29.0896 35.7297 26.3655 32.3769 26.3655C31.6461 26.3655 30.9454 26.495 30.2965 26.7322Z" fill="#D7FE63"/>
<path fill-rule="evenodd" clip-rule="evenodd" d="M64 49.6591L49.6912 64L39.3551 53.6406C37.1602 54.3662 34.8144 54.7589 32.377 54.7589C21.6308 54.7589 12.6633 47.1268 10.5762 36.9759L0 0L37.9763 10.8523C47.5593 13.3409 54.6362 22.067 54.6362 32.4497C54.6362 34.8124 54.2697 37.0892 53.5907 39.2263L64 49.6591ZM36.6305 15.8101L12.5262 8.92196L30.2965 26.7322C30.9454 26.495 31.6461 26.3655 32.3769 26.3655C35.7297 26.3655 38.4476 29.0896 38.4476 32.4499C38.4476 35.8102 35.7297 38.5342 32.3769 38.5342C29.0242 38.5342 26.3062 35.8102 26.3062 32.4499C26.3062 31.7176 26.4353 31.0155 26.6719 30.3652L8.93254 12.5859L15.5575 35.7477L15.5968 35.9389C17.2029 43.7502 24.1116 49.6212 32.377 49.6212C34.262 49.6212 36.0661 49.318 37.7493 48.7616L40.7475 47.7704L49.6912 56.7343L56.7506 49.6591L47.7593 40.6476L48.7062 37.6673C49.227 36.0284 49.51 34.2771 49.51 32.4497C49.51 24.4652 44.0679 17.7415 36.6906 15.8257L36.6305 15.8101Z" fill="black"/>
</svg>
